<svg style="position: absolute; width: 0; height: 0; overflow: hidden;" version="1.1" xmlns="http://www.w3.org/2000/svg" xmlns:xlink="http://www.w3.org/1999/xlink">
<defs>
<symbol id="icon-instagram" viewBox="0 0 32 32">
<title>instagram</title>
<path class="path1" d="M16 2.881c4.275 0 4.781 0.019 6.462 0.094 1.563 0.069 2.406 0.331 2.969 0.55 0.744 0.288 1.281 0.638 1.837 1.194 0.563 0.563 0.906 1.094 1.2 1.838 0.219 0.563 0.481 1.412 0.55 2.969 0.075 1.688 0.094 2.194 0.094 6.463s-0.019 4.781-0.094 6.463c-0.069 1.563-0.331 2.406-0.55 2.969-0.288 0.744-0.637 1.281-1.194 1.837-0.563 0.563-1.094 0.906-1.837 1.2-0.563 0.219-1.413 0.481-2.969 0.55-1.688 0.075-2.194 0.094-6.463 0.094s-4.781-0.019-6.463-0.094c-1.563-0.069-2.406-0.331-2.969-0.55-0.744-0.288-1.281-0.637-1.838-1.194-0.563-0.563-0.906-1.094-1.2-1.837-0.219-0.563-0.481-1.413-0.55-2.969-0.075-1.688-0.094-2.194-0.094-6.463s0.019-4.781 0.094-6.463c0.069-1.563 0.331-2.406 0.55-2.969 0.288-0.744 0.638-1.281 1.194-1.838 0.563-0.563 1.094-0.906 1.838-1.2 0.563-0.219 1.412-0.481 2.969-0.55 1.681-0.075 2.188-0.094 6.463-0.094zM16 0c-4.344 0-4.887 0.019-6.594 0.094-1.7 0.075-2.869 0.35-3.881 0.744-1.056 0.412-1.95 0.956-2.837 1.85-0.894 0.888-1.438 1.781-1.85 2.831-0.394 1.019-0.669 2.181-0.744 3.881-0.075 1.713-0.094 2.256-0.094 6.6s0.019 4.887 0.094 6.594c0.075 1.7 0.35 2.869 0.744 3.881 0.413 1.056 0.956 1.95 1.85 2.837 0.887 0.887 1.781 1.438 2.831 1.844 1.019 0.394 2.181 0.669 3.881 0.744 1.706 0.075 2.25 0.094 6.594 0.094s4.888-0.019 6.594-0.094c1.7-0.075 2.869-0.35 3.881-0.744 1.050-0.406 1.944-0.956 2.831-1.844s1.438-1.781 1.844-2.831c0.394-1.019 0.669-2.181 0.744-3.881 0.075-1.706 0.094-2.25 0.094-6.594s-0.019-4.887-0.094-6.594c-0.075-1.7-0.35-2.869-0.744-3.881-0.394-1.063-0.938-1.956-1.831-2.844-0.887-0.887-1.781-1.438-2.831-1.844-1.019-0.394-2.181-0.669-3.881-0.744-1.712-0.081-2.256-0.1-6.6-0.1v0z"></path>
<path class="path2" d="M16 7.781c-4.537 0-8.219 3.681-8.219 8.219s3.681 8.219 8.219 8.219 8.219-3.681 8.219-8.219c0-4.537-3.681-8.219-8.219-8.219zM16 21.331c-2.944 0-5.331-2.387-5.331-5.331s2.387-5.331 5.331-5.331c2.944 0 5.331 2.387 5.331 5.331s-2.387 5.331-5.331 5.331z"></path>
<path class="path3" d="M26.462 7.456c0 1.060-0.859 1.919-1.919 1.919s-1.919-0.859-1.919-1.919c0-1.060 0.859-1.919 1.919-1.919s1.919 0.859 1.919 1.919z"></path>
</symbol>
<symbol id="icon-pinterest" viewBox="0 0 32 32">
<title>pinterest</title>
<path class="path1" d="M16 0c-8.825 0-16 7.175-16 16s7.175 16 16 16 16-7.175 16-16-7.175-16-16-16zM16 29.863c-1.431 0-2.806-0.219-4.106-0.619 0.563-0.919 1.412-2.431 1.725-3.631 0.169-0.65 0.863-3.294 0.863-3.294 0.45 0.863 1.775 1.594 3.175 1.594 4.181 0 7.194-3.844 7.194-8.625 0-4.581-3.738-8.006-8.544-8.006-5.981 0-9.156 4.019-9.156 8.387 0 2.031 1.081 4.563 2.813 5.369 0.262 0.125 0.4 0.069 0.463-0.188 0.044-0.194 0.281-1.131 0.387-1.575 0.031-0.137 0.019-0.262-0.094-0.4-0.575-0.694-1.031-1.975-1.031-3.162 0-3.056 2.313-6.019 6.256-6.019 3.406 0 5.788 2.319 5.788 5.637 0 3.75-1.894 6.35-4.356 6.35-1.363 0-2.381-1.125-2.050-2.506 0.394-1.65 1.15-3.425 1.15-4.613 0-1.063-0.569-1.95-1.756-1.95-1.394 0-2.506 1.438-2.506 3.369 0 1.225 0.412 2.056 0.412 2.056s-1.375 5.806-1.625 6.887c-0.281 1.2-0.169 2.881-0.050 3.975-5.156-2.012-8.813-7.025-8.813-12.9 0-7.656 6.206-13.863 13.862-13.863s13.863 6.206 13.863 13.863c0 7.656-6.206 13.863-13.863 13.863z"></path>
</symbol>
<symbol id="icon-mail-envelope-open" viewBox="0 0 32 32">
<title>mail-envelope-open</title>
<path class="path1" d="M20.638 20h-8.332l2.244 1.98 2.267 0.011-1.697 0.009h3.378l0.020-0.018-0.099 0.001 2.218-1.983zM21.757 19l3.243-2.9v-8.091c0-0.557-0.455-1.009-1-1.009h-15c-0.552 0-1 0.444-1 1.002v8.198l3.173 2.8h10.583zM13.091 6l3.409-3 3.409 3h4.093c1.107 0 1.997 0.895 1.997 2v3.36l3 2.64v14.006c0 1.1-0.897 1.994-2.004 1.994h-20.993c-1.114 0-2.004-0.893-2.004-1.994v-14.006l3-2.64v-3.36c0-1.112 0.894-2 1.997-2h4.093zM18.428 6l-1.928-1.7-1.928 1.7h3.856zM26 12.677v2.656l1.5-1.333-1.5-1.323zM7 15.333v-2.656l-1.5 1.323 1.5 1.333zM13.5 23l-7 6h20l-7-6h-6zM27.685 28.725v0 0c0.194-0.183 0.315-0.442 0.315-0.725v-13l-8 7.017 7.685 6.708zM5.315 28.725l7.685-6.708-8-7.017v13c0 0.283 0.121 0.542 0.315 0.725v0 0zM10 10v1h13v-1h-13zM10 13v1h13v-1h-13zM10 16v1h13v-1h-13z"></path>
</symbol>
<symbol id="icon-stop-watch" viewBox="0 0 32 32">
<title>stop-watch</title>
<path class="path1" d="M7.729 11.022c1.53-1.403 3.44-2.397 5.559-2.81-0.786-0.642-1.288-1.619-1.288-2.713 0-1.933 1.567-3.5 3.5-3.5s3.5 1.567 3.5 3.5c0 1.094-0.502 2.071-1.288 2.713v0c2.118 0.413 4.029 1.407 5.559 2.81v0l1.229-1.229-0.707-0.707 0.707-0.707 2.121 2.121-0.707 0.707-0.707-0.707-1.229 1.229c1.877 2.047 3.022 4.775 3.022 7.771 0 6.351-5.149 11.5-11.5 11.5s-11.5-5.149-11.5-11.5c0-2.996 1.146-5.724 3.022-7.771l-1.229-1.229-0.707 0.707-0.707-0.707 2.121-2.121 0.707 0.707-0.707 0.707 1.229 1.229zM16.147 18.146l3.119-3.119c0.191-0.191 0.514-0.198 0.71-0.002 0.19 0.19 0.194 0.513-0.002 0.71l-3.119 3.119c0.094 0.196 0.146 0.415 0.146 0.647 0 0.828-0.672 1.5-1.5 1.5-0.232 0-0.451-0.052-0.647-0.146l-1.119 1.119c-0.191 0.191-0.514 0.198-0.71 0.002-0.19-0.19-0.194-0.513 0.002-0.71l1.119-1.119c-0.094-0.196-0.146-0.415-0.146-0.647 0-0.828 0.672-1.5 1.5-1.5 0.232 0 0.451 0.052 0.647 0.146v0 0zM16 7.95c1.141-0.232 2-1.24 2-2.45 0-1.381-1.119-2.5-2.5-2.5s-2.5 1.119-2.5 2.5c0 1.209 0.859 2.218 2 2.45v-1.95h-1v-1h3v1h-1v1.95zM8.016 19.998h2.496c0.271 0 0.49-0.232 0.49-0.5 0-0.276-0.215-0.5-0.49-0.5h-2.495c0.247-3.743 3.24-6.735 6.983-6.981v2.493c0 0.271 0.232 0.49 0.5 0.49 0.276 0 0.5-0.215 0.5-0.49v-2.493c3.743 0.246 6.736 3.239 6.983 6.981h-2.495c-0.271 0-0.49 0.232-0.49 0.5 0 0.276 0.215 0.5 0.49 0.5h2.496c-0.245 3.745-3.239 6.739-6.984 6.986v-2.498c0-0.271-0.232-0.49-0.5-0.49-0.276 0-0.5 0.215-0.5 0.49v2.498c-3.745-0.246-6.738-3.241-6.984-6.986zM15.5 30c5.799 0 10.5-4.701 10.5-10.5s-4.701-10.5-10.5-10.5c-5.799 0-10.5 4.701-10.5 10.5s4.701 10.5 10.5 10.5v0zM15.5 28c4.694 0 8.5-3.806 8.5-8.5s-3.806-8.5-8.5-8.5c-4.694 0-8.5 3.806-8.5 8.5s3.806 8.5 8.5 8.5v0zM15.5 20c0.276 0 0.5-0.224 0.5-0.5s-0.224-0.5-0.5-0.5c-0.276 0-0.5 0.224-0.5 0.5s0.224 0.5 0.5 0.5v0z"></path>
</symbol>
<symbol id="icon-stop-watch-2" viewBox="0 0 32 32">
<title>stop-watch-2</title>
<path class="path1" d="M15 16.085v-5.584c0-0.271 0.224-0.501 0.5-0.501 0.268 0 0.5 0.224 0.5 0.501v5.584c0.583 0.206 1 0.762 1 1.415s-0.417 1.209-1 1.415v1.584c0 0.271-0.224 0.501-0.5 0.501-0.268 0-0.5-0.224-0.5-0.501v-1.584c-0.583-0.206-1-0.762-1-1.415s0.417-1.209 1-1.415v0 0zM23.271 9.022l1.229-1.229-0.707-0.707 0.707-0.707 2.121 2.121-0.707 0.707-0.707-0.707-1.229 1.229c1.877 2.047 3.022 4.775 3.022 7.771 0 6.351-5.149 11.5-11.5 11.5s-11.5-5.149-11.5-11.5c0-6.184 4.881-11.228 11-11.489v-2.011h-1v-1h3v1h-1v2.011c2.799 0.12 5.338 1.24 7.271 3.012zM15.5 28c5.799 0 10.5-4.701 10.5-10.5s-4.701-10.5-10.5-10.5c-5.799 0-10.5 4.701-10.5 10.5s4.701 10.5 10.5 10.5v0zM15.5 18c0.276 0 0.5-0.224 0.5-0.5s-0.224-0.5-0.5-0.5c-0.276 0-0.5 0.224-0.5 0.5s0.224 0.5 0.5 0.5v0z"></path>
</symbol>
<symbol id="icon-arrow-right" viewBox="0 0 17 32">
<title>arrow-right</title>
<path class="path1" d="M0.372 29.805c-0.484 0.521-0.484 1.302 0 1.823 0.484 0.484 1.302 0.521 1.786 0l14.586-14.735c0.484-0.521 0.484-1.302 0-1.823l-14.586-14.698c-0.484-0.484-1.302-0.484-1.786 0-0.484 0.521-0.484 1.302 0 1.823l13.284 13.805-13.284 13.805z"></path>
</symbol>
<symbol id="icon-clock-arrow" viewBox="0 0 31 32">
<title>clock-arrow</title>
<path class="path1" fill="var(--color1, #fff)" d="M15.58 32c-8.584 0-15.58-6.996-15.58-15.58 0-0.428 0.336-0.764 0.764-0.764s0.764 0.336 0.764 0.764c0 7.744 6.308 14.053 14.053 14.053s14.053-6.308 14.053-14.053-6.308-14.053-14.053-14.053c-3.926 0-7.714 1.665-10.387 4.582-0.29 0.306-0.764 0.336-1.085 0.046-0.305-0.29-0.336-0.764-0.046-1.085 2.963-3.223 7.164-5.071 11.517-5.071 8.584 0 15.58 6.996 15.58 15.58s-6.996 15.58-15.58 15.58z"></path>
<path class="path2" fill="var(--color1, #fff)" d="M19.307 22.499c-0.26 0-0.519-0.122-0.687-0.351l-3.727-5.239c-0.107-0.137-0.153-0.305-0.153-0.489v-8.416c0-0.458 0.382-0.84 0.84-0.84s0.84 0.382 0.84 0.84v8.141l3.574 5.025c0.275 0.382 0.183 0.901-0.199 1.176-0.153 0.107-0.321 0.153-0.489 0.153z"></path>
<path class="path3" fill="var(--color1, #fff)" d="M3.528 0.871c-0.199 2.077-0.412 4.139-0.611 6.217-0.046 0.489 0.458 0.916 0.916 0.916 1.94 0 3.864 0 5.804 0 1.176 0 1.176-1.833 0-1.833-1.94 0-3.864 0-5.804 0 0.306 0.306 0.611 0.611 0.916 0.916 0.199-2.077 0.412-4.139 0.611-6.217 0.122-1.161-1.711-1.161-1.833 0v0z"></path>
</symbol>
<symbol id="icon-gluten-free" viewBox="0 0 32 32">
<title>gluten-free</title>
<path class="path1" d="M17.616 28.239c-0.33 0-0.66 0-0.99-0.066-0.396-0.066-0.66-0.594-0.66-0.858-0.132-2.771 1.65-5.146 4.421-5.938 0.33-0.132 0.726-0.198 1.056-0.264l0.198-0.066c0.396-0.066 0.66-0.132 0.924 0.066s0.264 0.528 0.264 0.858v0.462c-0.066 1.584-0.462 2.837-1.188 3.827-0.858 1.32-2.309 1.979-4.025 1.979zM16.825 27.381c0.792 0.132 2.903 0.264 4.157-1.584 0.66-0.924 0.99-1.979 1.056-3.431v-0.396c0-0.066 0-0.132 0-0.198-0.066 0-0.132 0-0.198 0.066l-0.198 0.066c-0.33 0.066-0.66 0.132-0.99 0.198-2.441 0.726-3.893 2.771-3.827 5.146-0.066 0.066 0 0.132 0 0.132zM16.759 27.381c0 0 0 0 0 0s0 0 0 0z"></path>
<path class="path2" d="M14.515 26.458c-2.771 0-4.685-1.649-5.146-4.619-0.066-0.264-0.066-0.528-0.132-0.792l-0.066-0.396c0-0.462 0-0.792 0.198-0.99 0.264-0.198 0.528-0.198 1.122-0.132 2.771 0.264 4.75 1.847 5.476 4.289 0.132 0.396 0.198 0.792 0.198 1.188l0.066 0.33c0.066 0.264 0 0.462-0.132 0.66s-0.33 0.264-0.66 0.33c-0.264 0.066-0.594 0.132-0.924 0.132zM9.963 20.586l0.066 0.33c0 0.264 0.066 0.528 0.132 0.792 0.528 2.903 2.375 4.289 5.278 3.893 0.066 0 0.132 0 0.132 0s0 0 0-0.066l-0.066-0.396c-0.066-0.396-0.132-0.726-0.198-1.122-0.594-2.111-2.375-3.497-4.816-3.761-0.198 0-0.33-0.066-0.462-0.066-0.066 0.132-0.066 0.264-0.066 0.396z"></path>
<path class="path3" d="M15.241 20.454v0c-2.441 0-4.091-1.386-4.619-3.827-0.066-0.462-0.132-0.858-0.198-1.32v-0.33c0-0.132-0.066-0.528 0.198-0.792 0.198-0.198 0.462-0.264 0.792-0.198 3.167 0.396 5.080 2.309 5.278 5.344 0 0.132 0 0.528-0.198 0.792-0.132 0.198-0.396 0.264-0.726 0.264-0.132 0-0.264 0-0.396 0l-0.132 0.066zM11.216 14.845c0 0 0 0.066 0 0.132v0.33c0.066 0.396 0.066 0.858 0.132 1.254 0.396 2.045 1.781 3.167 3.761 3.167h0.066c0.132 0 0.33-0.066 0.528-0.066 0.066 0 0.132 0 0.132 0s0-0.066 0-0.198c-0.132-2.639-1.781-4.289-4.553-4.619 0 0-0.066 0-0.066 0z"></path>
<path class="path4" d="M17.419 22.169c-0.132 0-0.264 0-0.396 0-0.792-0.066-0.858-0.726-0.858-0.99v-0.066c-0.066-2.309 1.254-4.223 3.365-5.080 0.396-0.132 0.858-0.264 1.452-0.396 0.264-0.066 0.594-0.132 0.858 0.066s0.264 0.528 0.264 0.858c0 0.198-0.198 2.309-0.594 3.167v0c-0.594 1.584-2.045 2.441-4.091 2.441zM17.023 21.377c0 0 0.066 0 0 0 1.386 0.066 3.101-0.198 3.827-1.979 0.33-0.726 0.528-2.639 0.528-2.837 0-0.066 0-0.132 0-0.198-0.066 0-0.066 0-0.198 0-0.528 0.132-0.924 0.264-1.32 0.396-1.847 0.726-2.903 2.375-2.903 4.355v0.066c0.066 0 0.066 0.132 0.066 0.198 0 0 0 0 0 0z"></path>
<path class="path5" d="M17.089 16.429c-0.066 0-0.132 0-0.198 0-0.726 0-0.792-0.66-0.792-0.924-0.132-2.507 1.254-4.487 3.695-5.278h0.132c0.594-0.198 1.056-0.33 1.386-0.066s0.33 0.726 0.396 1.386v0.132c0 0.198-0.066 0.33-0.066 0.528-0.066 0.396-0.132 0.792-0.198 1.188-0.594 1.913-2.111 3.035-4.355 3.035zM20.849 10.755c-0.132 0-0.528 0.132-0.726 0.198h-0.066c-2.111 0.66-3.299 2.375-3.167 4.421v0.066c0 0.066 0 0.132 0 0.198 1.979 0 3.233-0.792 3.761-2.573 0.066-0.33 0.132-0.726 0.198-1.122 0-0.198 0.066-0.33 0.066-0.528 0-0.132-0.066-0.528-0.066-0.66z"></path>
<path class="path6" d="M15.571 14.779c-2.441 0-4.223-1.649-4.421-4.091l-0.066-0.594c0-0.858 0-1.386 0.396-1.649s0.924-0.066 1.584 0.198c2.375 0.858 3.761 3.035 3.497 5.41-0.132 0.66-0.594 0.726-0.99 0.726 0 0 0 0 0 0zM11.876 10.029l0.066 0.594c0.132 2.045 1.583 3.365 3.629 3.365 0.066 0 0.198 0 0.198 0s0-0.066 0-0.132c0.264-1.979-0.924-3.827-2.969-4.553-0.264-0.066-0.726-0.264-0.858-0.264-0.066 0.198-0.066 0.726-0.066 0.99z"></path>
<path class="path7" d="M16.891 11.348c0 0 0 0 0 0-0.132 0-0.462-0.066-0.66-0.198-2.243-2.375-2.177-4.882 0.132-7.192 0.264-0.264 0.858-0.264 1.122 0 1.056 1.122 1.584 2.243 1.649 3.563v0 0c-0.066 1.32-0.66 2.507-1.847 3.629-0.066 0.132-0.198 0.198-0.396 0.198zM16.825 10.623c0 0 0 0 0 0s0 0 0 0zM16.825 10.557c0 0 0 0 0 0 1.056-0.924 1.518-1.913 1.584-3.035-0.066-1.056-0.528-2.045-1.386-2.969 0 0-0.066 0-0.066 0-1.979 1.913-1.979 4.025-0.132 6.004zM17.089 4.553v0 0zM16.957 4.487c0 0 0 0 0 0s0 0 0 0z"></path>
<path class="path8" d="M15.967 32c-8.775 0-15.967-7.192-15.967-16.033s7.192-15.967 15.967-15.967c8.841 0 15.967 7.192 15.967 15.967s-7.126 16.033-15.967 16.033zM15.967 0.99c-8.247 0-14.977 6.73-14.977 14.977s6.73 15.043 14.977 15.043c8.313 0 15.043-6.73 15.043-15.043s-6.73-14.977-15.043-14.977z"></path>
<path class="path9" d="M17.88 14.12c0 0 0 0 0 0-0.198-0.066-0.264-0.198-0.198-0.264 0-0.066 0.396-1.254 1.913-2.111 0.132-0.066 0.264 0 0.33 0.066 0.066 0.132 0 0.264-0.066 0.33-1.386 0.792-1.715 1.847-1.715 1.847-0.066 0.066-0.132 0.132-0.264 0.132z"></path>
<path class="path10" d="M4.639 26.579l21.834-21.834 0.7 0.7-21.834 21.834-0.7-0.7z"></path>
</symbol>
<symbol id="icon-nut-free" viewBox="0 0 32 32">
<title>nut-free</title>
<path class="path1" d="M15.967 32c-8.775 0-15.967-7.192-15.967-15.967s7.192-16.033 15.967-16.033c8.841 0 15.967 7.192 15.967 15.967s-7.126 16.033-15.967 16.033zM15.967 0.99c-8.247 0-14.977 6.73-14.977 15.043s6.73 14.977 14.977 14.977c8.313 0 15.043-6.73 15.043-14.977s-6.73-15.043-15.043-15.043z"></path>
<path class="path2" d="M9.435 16.363c-0.132-0.33-0.462-0.594-0.726-0.924-0.33-0.396-0.792-0.726-0.924-1.188-0.594-1.913 0.528-4.091 2.441-4.816 1.979-0.726 2.903-1.122 2.969-2.771 0-0.264 0.462-0.594 0.792-0.66 0.264-0.066 0.726 0.066 0.924 0.264 0.792 1.188 1.781 1.32 3.101 0.924 2.243-0.66 4.289 0.396 5.080 2.441 0.132 0.462 0.264 1.122 0 1.452-0.396 0.594-0.198 1.122-0.066 1.649 0.462 1.715 1.056 3.431 1.254 5.212 0.462 3.629-1.847 6.532-4.487 7.786-1.056 0.462-2.507 0.33-3.761 0.066-2.969-0.594-4.619-2.705-5.542-5.476-0.198-0.528-0.33-1.056-0.462-1.518 0-0.066-0.33-1.649-0.594-2.441zM10.029 15.505c0.594 1.913 0.924 3.761 1.649 5.476 1.188 2.903 3.827 4.421 6.994 4.223 0.264 0 0.528-0.066 0.792-0.198 2.441-1.518 4.223-3.563 4.025-6.598-0.132-1.913-0.858-3.827-1.254-5.74-0.132-0.66-0.462-0.726-1.056-0.528-2.705 0.792-5.344 1.583-8.050 2.375-1.056 0.396-2.045 0.66-3.101 0.99zM14.054 7.192c-0.066 0.264 0.132 1.913-2.111 2.507-0.528 0.132-1.056 0.396-1.583 0.594-1.32 0.594-2.045 1.715-1.781 3.167 0.132 0.726 0.594 1.452 1.386 1.254 1.122-0.33 2.111-0.594 3.299-0.924 2.771-0.792 5.542-1.649 8.313-2.441 0.99-0.264 1.188-0.726 0.726-1.649-0.132-0.264-0.33-0.528-0.594-0.792-1.122-1.188-2.507-1.254-3.959-0.792-2.441 0.792-3.431-0.594-3.695-0.924z"></path>
<path class="path3" d="M21.509 15.835c0.528 1.715 0.462 3.365-0.462 4.882-0.132 0.198-0.264 0.462-0.396 0.594-0.198 0.132-0.528 0.33-0.66 0.198s-0.066-0.462 0.066-0.66c1.254-1.649 1.188-3.497 0.594-5.344-0.066-0.198-0.132-0.396-0.132-0.594s0.066-0.462 0.264-0.462 0.396 0.132 0.462 0.33c0.066 0.33 0.132 0.66 0.264 1.056z"></path>
<path class="path4" d="M19.794 10.359c0 0.132-0.264 0.198-0.33 0.198-0.858-0.198-1.649-0.396-2.507-0.594-0.066 0-0.132-0.264-0.132-0.396 0.066-0.132 0.264-0.264 0.396-0.264 0.858-0.33 2.837 0 2.573 1.056z"></path>
<path class="path5" d="M4.718 26.621l21.834-21.834 0.7 0.7-21.834 21.834-0.7-0.7z"></path>
</symbol>
<symbol id="icon-soy-free" viewBox="0 0 32 32">
<title>soy-free</title>
<path class="path1" d="M10.359 12.404c0-0.33-0.066-0.594 0-0.924 0.264-1.715 0.792-3.233 2.639-3.827 1.781-0.594 3.233 0.198 4.289 1.583 0.66 0.924 1.518 1.979 1.584 3.035 0.264 2.573 1.122 4.882 2.441 7.060 0.924 1.518 0.462 3.035-0.792 4.157-1.188 1.122-2.837 1.32-4.355 0.594-1.584-0.792-2.705-2.045-3.365-3.629-0.792-1.847-1.518-3.761-2.111-5.608-0.264-0.792-0.33-1.583-0.462-2.375 0-0.066 0.066-0.066 0.132-0.066zM11.546 14.054c0.792 2.177 1.518 4.421 2.573 6.532 0.528 0.99 1.518 1.847 2.441 2.507 1.188 0.792 2.309 0.594 3.365-0.462 0.858-0.858 0.99-1.979 0.396-3.167-0.264-0.462-0.528-0.924-0.858-1.32-0.858-1.188-1.32-2.507-1.254-3.959 0-1.715-0.726-3.167-1.847-4.421-0.792-0.858-1.715-1.518-2.969-1.122s-1.649 1.518-1.913 2.639c-0.066 0.33-0.066 0.726-0.132 1.254 0 0.396 0 0.99 0.198 1.518z"></path>
<path class="path2" d="M15.967 32c-8.775 0-15.967-7.192-15.967-16.033s7.192-15.967 15.967-15.967c8.841 0 15.967 7.192 15.967 15.967s-7.126 16.033-15.967 16.033zM15.967 0.99c-8.247 0-14.977 6.73-14.977 14.977s6.73 15.043 14.977 15.043c8.313 0 15.043-6.73 15.043-15.043s-6.73-14.977-15.043-14.977z"></path>
<path class="path3" d="M4.699 26.586l21.927-21.927 0.7 0.7-21.927 21.927-0.7-0.7z"></path>
</symbol>
<symbol id="icon-sugar-free" viewBox="0 0 32 32">
<title>sugar-free</title>
<path class="path1" fill="var(--color2, #000)" d="M15.967 32c-8.775 0-15.967-7.192-15.967-16.033 0-8.775 7.192-15.967 15.967-15.967s15.967 7.192 15.967 15.967c0.066 8.841-7.126 16.033-15.967 16.033zM15.967 0.99c-8.247 0-14.977 6.73-14.977 14.977 0 8.313 6.73 15.043 14.977 15.043s15.043-6.73 15.043-15.043c0-8.247-6.73-14.977-15.043-14.977z"></path>
<path class="path2" fill="var(--color2, #000)" d="M13.328 20.586c0 0 0 0 0 0l-6.598-0.726c-0.198 0-0.396-0.198-0.396-0.462l0.066-7.522c0 0 0 0 0-0.066s0.066-0.132 0.066-0.198c0 0 0 0 0 0s0 0 0 0 0.066-0.066 0.066-0.066c0 0 0 0 0 0s0 0 0 0 0 0 0 0l4.685-3.629c0.066-0.066 0.198-0.132 0.33-0.066l6.334 0.594c0.198 0 0.396 0.198 0.396 0.396v6.994c0 0.132-0.066 0.264-0.132 0.33l-4.487 4.289c0 0 0 0 0 0s0 0 0 0c-0.132 0.132-0.198 0.132-0.33 0.132zM7.192 19.068l5.74 0.594 0.066-6.928-5.74-0.396-0.066 6.73zM7.984 11.546l5.41 0.396c0.198 0 0.396 0.198 0.396 0.462l-0.066 6.796 3.695-3.431v-6.466l-5.74-0.594-3.695 2.837z"></path>
<path class="path3" fill="var(--color2, #000)" d="M13.394 12.8c-0.132 0-0.264-0.066-0.33-0.198-0.132-0.198-0.132-0.462 0.066-0.594l4.289-3.299c0.198-0.132 0.462-0.132 0.594 0.066s0.132 0.462-0.066 0.594l-4.289 3.299c-0.066 0.132-0.198 0.132-0.264 0.132z"></path>
<path class="path4" fill="var(--color3, #fcfcfc)" d="M14.779 20.256l1.056-5.938 3.233-0.66-2.837 8.050-1.649-1.056z"></path>
<path class="path5" fill="var(--color2, #000)" d="M16.363 22.169l-2.177-1.452 0.264-0.594 1.122-6.136 4.025-0.792-3.233 8.973zM14.977 20.52l1.056 0.66 2.507-7.060-2.441 0.462-1.056 5.806-0.066 0.132z"></path>
<path class="path6" fill="var(--color2, #000)" d="M18.672 24.214l-4.553-3.365 1.254-7.39 6.532-0.396 3.827 3.101-0.924 6.664-6.136 1.386zM15.043 20.454l3.827 2.837 5.146-1.188 0.792-5.608-3.233-2.573-5.476 0.33-1.056 6.202z"></path>
<path class="path7" fill="var(--color2, #000)" d="M20.058 17.55l-0.33-0.132-4.289-3.233 0.528-0.66 4.157 3.101 5.080-0.726 0.066 0.858z"></path>
<path class="path8" fill="var(--color2, #000)" d="M18.331 23.627l1.263-6.61 0.842 0.161-1.263 6.61-0.842-0.161z"></path>
<path class="path9" fill="var(--color2, #000)" d="M4.518 26.763l21.974-21.974 0.7 0.7-21.974 21.974-0.7-0.7z"></path>
</symbol>
</defs>
</svg>
