<?xml version="1.0" encoding="utf-8"?>
<!-- Generated by IcoMoon.io -->
<!DOCTYPE svg PUBLIC "-//W3C//DTD SVG 1.1//EN" "http://www.w3.org/Graphics/SVG/1.1/DTD/svg11.dtd">
<svg version="1.1" xmlns="http://www.w3.org/2000/svg" xmlns:xlink="http://www.w3.org/1999/xlink" width="31" height="32" viewBox="0 0 31 32">
<path fill="#fff" d="M15.58 32c-8.584 0-15.58-6.996-15.58-15.58 0-0.428 0.336-0.764 0.764-0.764s0.764 0.336 0.764 0.764c0 7.744 6.308 14.053 14.053 14.053s14.053-6.308 14.053-14.053-6.308-14.053-14.053-14.053c-3.926 0-7.714 1.665-10.387 4.582-0.29 0.306-0.764 0.336-1.085 0.046-0.305-0.29-0.336-0.764-0.046-1.085 2.963-3.223 7.164-5.071 11.517-5.071 8.584 0 15.58 6.996 15.58 15.58s-6.996 15.58-15.58 15.58z"></path>
<path fill="#fff" d="M19.307 22.499c-0.26 0-0.519-0.122-0.687-0.351l-3.727-5.239c-0.107-0.137-0.153-0.305-0.153-0.489v-8.416c0-0.458 0.382-0.84 0.84-0.84s0.84 0.382 0.84 0.84v8.141l3.574 5.025c0.275 0.382 0.183 0.901-0.199 1.176-0.153 0.107-0.321 0.153-0.489 0.153z"></path>
<path fill="#fff" d="M3.528 0.871c-0.199 2.077-0.412 4.139-0.611 6.217-0.046 0.489 0.458 0.916 0.916 0.916 1.94 0 3.864 0 5.804 0 1.176 0 1.176-1.833 0-1.833-1.94 0-3.864 0-5.804 0 0.306 0.306 0.611 0.611 0.916 0.916 0.199-2.077 0.412-4.139 0.611-6.217 0.122-1.161-1.711-1.161-1.833 0v0z"></path>
</svg>
