<?xml version="1.0" encoding="utf-8"?>
<!-- Generated by IcoMoon.io -->
<!DOCTYPE svg PUBLIC "-//W3C//DTD SVG 1.1//EN" "http://www.w3.org/Graphics/SVG/1.1/DTD/svg11.dtd">
<svg version="1.1" xmlns="http://www.w3.org/2000/svg" xmlns:xlink="http://www.w3.org/1999/xlink" width="32" height="32" viewBox="0 0 32 32">
<path d="M15.967 32c-8.775 0-15.967-7.192-15.967-15.967s7.192-16.033 15.967-16.033c8.841 0 15.967 7.192 15.967 15.967s-7.126 16.033-15.967 16.033zM15.967 0.99c-8.247 0-14.977 6.73-14.977 15.043s6.73 14.977 14.977 14.977c8.313 0 15.043-6.73 15.043-14.977s-6.73-15.043-15.043-15.043z"></path>
<path d="M9.435 16.363c-0.132-0.33-0.462-0.594-0.726-0.924-0.33-0.396-0.792-0.726-0.924-1.188-0.594-1.913 0.528-4.091 2.441-4.816 1.979-0.726 2.903-1.122 2.969-2.771 0-0.264 0.462-0.594 0.792-0.66 0.264-0.066 0.726 0.066 0.924 0.264 0.792 1.188 1.781 1.32 3.101 0.924 2.243-0.66 4.289 0.396 5.080 2.441 0.132 0.462 0.264 1.122 0 1.452-0.396 0.594-0.198 1.122-0.066 1.649 0.462 1.715 1.056 3.431 1.254 5.212 0.462 3.629-1.847 6.532-4.487 7.786-1.056 0.462-2.507 0.33-3.761 0.066-2.969-0.594-4.619-2.705-5.542-5.476-0.198-0.528-0.33-1.056-0.462-1.518 0-0.066-0.33-1.649-0.594-2.441zM10.029 15.505c0.594 1.913 0.924 3.761 1.649 5.476 1.188 2.903 3.827 4.421 6.994 4.223 0.264 0 0.528-0.066 0.792-0.198 2.441-1.518 4.223-3.563 4.025-6.598-0.132-1.913-0.858-3.827-1.254-5.74-0.132-0.66-0.462-0.726-1.056-0.528-2.705 0.792-5.344 1.583-8.050 2.375-1.056 0.396-2.045 0.66-3.101 0.99zM14.054 7.192c-0.066 0.264 0.132 1.913-2.111 2.507-0.528 0.132-1.056 0.396-1.583 0.594-1.32 0.594-2.045 1.715-1.781 3.167 0.132 0.726 0.594 1.452 1.386 1.254 1.122-0.33 2.111-0.594 3.299-0.924 2.771-0.792 5.542-1.649 8.313-2.441 0.99-0.264 1.188-0.726 0.726-1.649-0.132-0.264-0.33-0.528-0.594-0.792-1.122-1.188-2.507-1.254-3.959-0.792-2.441 0.792-3.431-0.594-3.695-0.924z"></path>
<path d="M21.509 15.835c0.528 1.715 0.462 3.365-0.462 4.882-0.132 0.198-0.264 0.462-0.396 0.594-0.198 0.132-0.528 0.33-0.66 0.198s-0.066-0.462 0.066-0.66c1.254-1.649 1.188-3.497 0.594-5.344-0.066-0.198-0.132-0.396-0.132-0.594s0.066-0.462 0.264-0.462 0.396 0.132 0.462 0.33c0.066 0.33 0.132 0.66 0.264 1.056z"></path>
<path d="M19.794 10.359c0 0.132-0.264 0.198-0.33 0.198-0.858-0.198-1.649-0.396-2.507-0.594-0.066 0-0.132-0.264-0.132-0.396 0.066-0.132 0.264-0.264 0.396-0.264 0.858-0.33 2.837 0 2.573 1.056z"></path>
<path d="M4.718 26.621l21.834-21.834 0.7 0.7-21.834 21.834-0.7-0.7z"></path>
</svg>
