<?xml version="1.0" encoding="utf-8"?>
<!-- Generated by IcoMoon.io -->
<!DOCTYPE svg PUBLIC "-//W3C//DTD SVG 1.1//EN" "http://www.w3.org/Graphics/SVG/1.1/DTD/svg11.dtd">
<svg version="1.1" xmlns="http://www.w3.org/2000/svg" xmlns:xlink="http://www.w3.org/1999/xlink" width="32" height="32" viewBox="0 0 32 32">
<path d="M17.616 28.239c-0.33 0-0.66 0-0.99-0.066-0.396-0.066-0.66-0.594-0.66-0.858-0.132-2.771 1.65-5.146 4.421-5.938 0.33-0.132 0.726-0.198 1.056-0.264l0.198-0.066c0.396-0.066 0.66-0.132 0.924 0.066s0.264 0.528 0.264 0.858v0.462c-0.066 1.584-0.462 2.837-1.188 3.827-0.858 1.32-2.309 1.979-4.025 1.979zM16.825 27.381c0.792 0.132 2.903 0.264 4.157-1.584 0.66-0.924 0.99-1.979 1.056-3.431v-0.396c0-0.066 0-0.132 0-0.198-0.066 0-0.132 0-0.198 0.066l-0.198 0.066c-0.33 0.066-0.66 0.132-0.99 0.198-2.441 0.726-3.893 2.771-3.827 5.146-0.066 0.066 0 0.132 0 0.132zM16.759 27.381c0 0 0 0 0 0s0 0 0 0z"></path>
<path d="M14.515 26.458c-2.771 0-4.685-1.649-5.146-4.619-0.066-0.264-0.066-0.528-0.132-0.792l-0.066-0.396c0-0.462 0-0.792 0.198-0.99 0.264-0.198 0.528-0.198 1.122-0.132 2.771 0.264 4.75 1.847 5.476 4.289 0.132 0.396 0.198 0.792 0.198 1.188l0.066 0.33c0.066 0.264 0 0.462-0.132 0.66s-0.33 0.264-0.66 0.33c-0.264 0.066-0.594 0.132-0.924 0.132zM9.963 20.586l0.066 0.33c0 0.264 0.066 0.528 0.132 0.792 0.528 2.903 2.375 4.289 5.278 3.893 0.066 0 0.132 0 0.132 0s0 0 0-0.066l-0.066-0.396c-0.066-0.396-0.132-0.726-0.198-1.122-0.594-2.111-2.375-3.497-4.816-3.761-0.198 0-0.33-0.066-0.462-0.066-0.066 0.132-0.066 0.264-0.066 0.396z"></path>
<path d="M15.241 20.454v0c-2.441 0-4.091-1.386-4.619-3.827-0.066-0.462-0.132-0.858-0.198-1.32v-0.33c0-0.132-0.066-0.528 0.198-0.792 0.198-0.198 0.462-0.264 0.792-0.198 3.167 0.396 5.080 2.309 5.278 5.344 0 0.132 0 0.528-0.198 0.792-0.132 0.198-0.396 0.264-0.726 0.264-0.132 0-0.264 0-0.396 0l-0.132 0.066zM11.216 14.845c0 0 0 0.066 0 0.132v0.33c0.066 0.396 0.066 0.858 0.132 1.254 0.396 2.045 1.781 3.167 3.761 3.167h0.066c0.132 0 0.33-0.066 0.528-0.066 0.066 0 0.132 0 0.132 0s0-0.066 0-0.198c-0.132-2.639-1.781-4.289-4.553-4.619 0 0-0.066 0-0.066 0z"></path>
<path d="M17.419 22.169c-0.132 0-0.264 0-0.396 0-0.792-0.066-0.858-0.726-0.858-0.99v-0.066c-0.066-2.309 1.254-4.223 3.365-5.080 0.396-0.132 0.858-0.264 1.452-0.396 0.264-0.066 0.594-0.132 0.858 0.066s0.264 0.528 0.264 0.858c0 0.198-0.198 2.309-0.594 3.167v0c-0.594 1.584-2.045 2.441-4.091 2.441zM17.023 21.377c0 0 0.066 0 0 0 1.386 0.066 3.101-0.198 3.827-1.979 0.33-0.726 0.528-2.639 0.528-2.837 0-0.066 0-0.132 0-0.198-0.066 0-0.066 0-0.198 0-0.528 0.132-0.924 0.264-1.32 0.396-1.847 0.726-2.903 2.375-2.903 4.355v0.066c0.066 0 0.066 0.132 0.066 0.198 0 0 0 0 0 0z"></path>
<path d="M17.089 16.429c-0.066 0-0.132 0-0.198 0-0.726 0-0.792-0.66-0.792-0.924-0.132-2.507 1.254-4.487 3.695-5.278h0.132c0.594-0.198 1.056-0.33 1.386-0.066s0.33 0.726 0.396 1.386v0.132c0 0.198-0.066 0.33-0.066 0.528-0.066 0.396-0.132 0.792-0.198 1.188-0.594 1.913-2.111 3.035-4.355 3.035zM20.849 10.755c-0.132 0-0.528 0.132-0.726 0.198h-0.066c-2.111 0.66-3.299 2.375-3.167 4.421v0.066c0 0.066 0 0.132 0 0.198 1.979 0 3.233-0.792 3.761-2.573 0.066-0.33 0.132-0.726 0.198-1.122 0-0.198 0.066-0.33 0.066-0.528 0-0.132-0.066-0.528-0.066-0.66z"></path>
<path d="M15.571 14.779c-2.441 0-4.223-1.649-4.421-4.091l-0.066-0.594c0-0.858 0-1.386 0.396-1.649s0.924-0.066 1.584 0.198c2.375 0.858 3.761 3.035 3.497 5.41-0.132 0.66-0.594 0.726-0.99 0.726 0 0 0 0 0 0zM11.876 10.029l0.066 0.594c0.132 2.045 1.583 3.365 3.629 3.365 0.066 0 0.198 0 0.198 0s0-0.066 0-0.132c0.264-1.979-0.924-3.827-2.969-4.553-0.264-0.066-0.726-0.264-0.858-0.264-0.066 0.198-0.066 0.726-0.066 0.99z"></path>
<path d="M16.891 11.348c0 0 0 0 0 0-0.132 0-0.462-0.066-0.66-0.198-2.243-2.375-2.177-4.882 0.132-7.192 0.264-0.264 0.858-0.264 1.122 0 1.056 1.122 1.584 2.243 1.649 3.563v0 0c-0.066 1.32-0.66 2.507-1.847 3.629-0.066 0.132-0.198 0.198-0.396 0.198zM16.825 10.623c0 0 0 0 0 0s0 0 0 0zM16.825 10.557c0 0 0 0 0 0 1.056-0.924 1.518-1.913 1.584-3.035-0.066-1.056-0.528-2.045-1.386-2.969 0 0-0.066 0-0.066 0-1.979 1.913-1.979 4.025-0.132 6.004zM17.089 4.553v0 0zM16.957 4.487c0 0 0 0 0 0s0 0 0 0z"></path>
<path d="M15.967 32c-8.775 0-15.967-7.192-15.967-16.033s7.192-15.967 15.967-15.967c8.841 0 15.967 7.192 15.967 15.967s-7.126 16.033-15.967 16.033zM15.967 0.99c-8.247 0-14.977 6.73-14.977 14.977s6.73 15.043 14.977 15.043c8.313 0 15.043-6.73 15.043-15.043s-6.73-14.977-15.043-14.977z"></path>
<path d="M17.88 14.12c0 0 0 0 0 0-0.198-0.066-0.264-0.198-0.198-0.264 0-0.066 0.396-1.254 1.913-2.111 0.132-0.066 0.264 0 0.33 0.066 0.066 0.132 0 0.264-0.066 0.33-1.386 0.792-1.715 1.847-1.715 1.847-0.066 0.066-0.132 0.132-0.264 0.132z"></path>
<path d="M4.639 26.579l21.834-21.834 0.7 0.7-21.834 21.834-0.7-0.7z"></path>
</svg>
