<?xml version="1.0" encoding="utf-8"?>
<!-- Generated by IcoMoon.io -->
<!DOCTYPE svg PUBLIC "-//W3C//DTD SVG 1.1//EN" "http://www.w3.org/Graphics/SVG/1.1/DTD/svg11.dtd">
<svg version="1.1" xmlns="http://www.w3.org/2000/svg" xmlns:xlink="http://www.w3.org/1999/xlink" width="32" height="32" viewBox="0 0 32 32">
<path d="M10.359 12.404c0-0.33-0.066-0.594 0-0.924 0.264-1.715 0.792-3.233 2.639-3.827 1.781-0.594 3.233 0.198 4.289 1.583 0.66 0.924 1.518 1.979 1.584 3.035 0.264 2.573 1.122 4.882 2.441 7.060 0.924 1.518 0.462 3.035-0.792 4.157-1.188 1.122-2.837 1.32-4.355 0.594-1.584-0.792-2.705-2.045-3.365-3.629-0.792-1.847-1.518-3.761-2.111-5.608-0.264-0.792-0.33-1.583-0.462-2.375 0-0.066 0.066-0.066 0.132-0.066zM11.546 14.054c0.792 2.177 1.518 4.421 2.573 6.532 0.528 0.99 1.518 1.847 2.441 2.507 1.188 0.792 2.309 0.594 3.365-0.462 0.858-0.858 0.99-1.979 0.396-3.167-0.264-0.462-0.528-0.924-0.858-1.32-0.858-1.188-1.32-2.507-1.254-3.959 0-1.715-0.726-3.167-1.847-4.421-0.792-0.858-1.715-1.518-2.969-1.122s-1.649 1.518-1.913 2.639c-0.066 0.33-0.066 0.726-0.132 1.254 0 0.396 0 0.99 0.198 1.518z"></path>
<path d="M15.967 32c-8.775 0-15.967-7.192-15.967-16.033s7.192-15.967 15.967-15.967c8.841 0 15.967 7.192 15.967 15.967s-7.126 16.033-15.967 16.033zM15.967 0.99c-8.247 0-14.977 6.73-14.977 14.977s6.73 15.043 14.977 15.043c8.313 0 15.043-6.73 15.043-15.043s-6.73-14.977-15.043-14.977z"></path>
<path d="M4.699 26.586l21.927-21.927 0.7 0.7-21.927 21.927-0.7-0.7z"></path>
</svg>
