<?xml version="1.0" encoding="utf-8"?>
<!-- Generated by IcoMoon.io -->
<!DOCTYPE svg PUBLIC "-//W3C//DTD SVG 1.1//EN" "http://www.w3.org/Graphics/SVG/1.1/DTD/svg11.dtd">
<svg version="1.1" xmlns="http://www.w3.org/2000/svg" xmlns:xlink="http://www.w3.org/1999/xlink" width="32" height="32" viewBox="0 0 32 32">
<path fill="#000" d="M15.967 32c-8.775 0-15.967-7.192-15.967-16.033 0-8.775 7.192-15.967 15.967-15.967s15.967 7.192 15.967 15.967c0.066 8.841-7.126 16.033-15.967 16.033zM15.967 0.99c-8.247 0-14.977 6.73-14.977 14.977 0 8.313 6.73 15.043 14.977 15.043s15.043-6.73 15.043-15.043c0-8.247-6.73-14.977-15.043-14.977z"></path>
<path fill="#000" d="M13.328 20.586c0 0 0 0 0 0l-6.598-0.726c-0.198 0-0.396-0.198-0.396-0.462l0.066-7.522c0 0 0 0 0-0.066s0.066-0.132 0.066-0.198c0 0 0 0 0 0s0 0 0 0 0.066-0.066 0.066-0.066c0 0 0 0 0 0s0 0 0 0 0 0 0 0l4.685-3.629c0.066-0.066 0.198-0.132 0.33-0.066l6.334 0.594c0.198 0 0.396 0.198 0.396 0.396v6.994c0 0.132-0.066 0.264-0.132 0.33l-4.487 4.289c0 0 0 0 0 0s0 0 0 0c-0.132 0.132-0.198 0.132-0.33 0.132zM7.192 19.068l5.74 0.594 0.066-6.928-5.74-0.396-0.066 6.73zM7.984 11.546l5.41 0.396c0.198 0 0.396 0.198 0.396 0.462l-0.066 6.796 3.695-3.431v-6.466l-5.74-0.594-3.695 2.837z"></path>
<path fill="#000" d="M13.394 12.8c-0.132 0-0.264-0.066-0.33-0.198-0.132-0.198-0.132-0.462 0.066-0.594l4.289-3.299c0.198-0.132 0.462-0.132 0.594 0.066s0.132 0.462-0.066 0.594l-4.289 3.299c-0.066 0.132-0.198 0.132-0.264 0.132z"></path>
<path fill="#fcfcfc" d="M14.779 20.256l1.056-5.938 3.233-0.66-2.837 8.050-1.649-1.056z"></path>
<path fill="#000" d="M16.363 22.169l-2.177-1.452 0.264-0.594 1.122-6.136 4.025-0.792-3.233 8.973zM14.977 20.52l1.056 0.66 2.507-7.060-2.441 0.462-1.056 5.806-0.066 0.132z"></path>
<path fill="#000" d="M18.672 24.214l-4.553-3.365 1.254-7.39 6.532-0.396 3.827 3.101-0.924 6.664-6.136 1.386zM15.043 20.454l3.827 2.837 5.146-1.188 0.792-5.608-3.233-2.573-5.476 0.33-1.056 6.202z"></path>
<path fill="#000" d="M20.058 17.55l-0.33-0.132-4.289-3.233 0.528-0.66 4.157 3.101 5.080-0.726 0.066 0.858z"></path>
<path fill="#000" d="M18.331 23.627l1.263-6.61 0.842 0.161-1.263 6.61-0.842-0.161z"></path>
<path fill="#000" d="M4.518 26.763l21.974-21.974 0.7 0.7-21.974 21.974-0.7-0.7z"></path>
</svg>
